<?xml version="1.0" encoding="utf-8"?>
<!DOCTYPE svg PUBLIC "-//W3C//DTD SVG 1.1//EN" "http://www.w3.org/Graphics/SVG/1.1/DTD/svg11.dtd">
<svg version="1.1" viewBox="0.00 0.00 1181.00 1181.00" xmlns="http://www.w3.org/2000/svg">
<g fill="none" stroke-linecap="butt" stroke-width="2.00">
<path d="   M 658.97 523.57   Q 656.39 524.08 654.94 523.94   C 556.83 514.23 461.03 487.28 370.47 447.23   C 278.14 406.40 190.55 353.27 111.30 291.46   Q 109.63 290.16 108.28 289.43   Q 107.47 288.99 108.03 289.73   C 111.09 293.80 114.80 297.48 118.18 301.30   Q 252.93 453.53 327.59 642.74   C 327.86 643.44 327.73 644.09 327.74 644.84" stroke="#8d94a7" vector-effect="non-scaling-stroke"/>
<path d="   M 327.74 644.84   Q 253.30 658.85 177.69 662.62   Q 177.22 662.65 176.83 662.91   Q 175.89 663.52 174.76 663.66   A 0.41 0.41 0.0 0 0 174.73 664.47   Q 264.53 682.47 351.10 712.30   Q 351.58 712.46 351.89 712.87   L 352.53 713.74" stroke="#80bad9" vector-effect="non-scaling-stroke"/>
<path d="   M 352.53 713.74   C 377.31 791.70 392.42 872.19 397.03 953.91   A 1.01 1.01 0.0 0 0 398.51 954.75   Q 503.94 899.50 602.00 831.92" stroke="#8d94a7" vector-effect="non-scaling-stroke"/>
<path d="   M 602.00 831.92   Q 603.13 832.44 605.24 833.77   Q 713.42 901.85 805.53 990.02   A 0.75 0.75 0.0 0 0 806.75 989.76   C 819.11 958.59 831.44 926.95 841.22 894.99   C 849.84 866.83 859.16 838.88 867.70 810.70   Q 892.24 729.73 910.34 647.07   Q 913.86 631.00 926.08 568.49" stroke="#80bad9" vector-effect="non-scaling-stroke"/>
<path d="   M 926.08 568.49   C 975.87 521.19 1025.17 473.49 1073.33 424.53   C 1074.21 423.64 1075.48 422.78 1076.47 421.86   Q 1076.95 421.41 1076.72 420.80   L 1076.55 420.32   A 0.58 0.58 0.0 0 0 1075.64 420.07   Q 1070.10 424.52 1064.37 428.40   Q 1006.23 467.75 940.00 491.38" stroke="#8d94a7" vector-effect="non-scaling-stroke"/>
<path d="   M 940.00 491.38   C 938.90 490.46 939.73 488.96 939.88 488.00   Q 962.93 338.29 971.89 187.07   Q 973.14 165.94 974.36 145.02   Q 974.39 144.45 974.04 144.90   Q 972.66 146.68 971.81 149.15   Q 921.79 293.62 814.83 402.57   Q 746.31 472.37 658.97 523.57" stroke="#80bad9" vector-effect="non-scaling-stroke"/>
<path d="   M 940.00 491.38   Q 939.19 491.45 939.21 492.00   Q 939.22 492.43 939.21 492.51   Q 933.06 530.56 926.08 568.49" stroke="#0d4f81" vector-effect="non-scaling-stroke"/>
<path d="   M 602.00 831.92   Q 601.31 831.69 600.65 831.29   Q 484.83 759.94 356.49 714.77   Q 354.27 713.99 353.42 713.52   Q 353.14 713.36 352.87 713.53   L 352.53 713.74" stroke="#0d4f81" vector-effect="non-scaling-stroke"/>
<path d="   M 327.74 644.84   Q 327.85 645.05 328.04 645.15   Q 328.20 645.22 328.44 645.18   C 432.95 625.75 533.32 591.97 627.14 541.96   C 629.23 540.84 631.24 540.40 633.25 538.95   C 637.34 535.99 642.56 533.93 646.05 532.11   C 650.84 529.61 654.24 526.19 658.26 524.85   Q 658.69 524.71 658.86 524.29   Q 659.01 523.89 658.97 523.57" stroke="#0d4f81" vector-effect="non-scaling-stroke"/>
<path d="   M 557.6262 467.1492   A 136.43 131.15 89.8 0 0 688.2992 330.2622   A 136.43 131.15 89.8 0 0 556.6738 194.2908   A 136.43 131.15 89.8 0 0 426.0008 331.1778   A 136.43 131.15 89.8 0 0 557.6262 467.1492" stroke="#8d94a7" vector-effect="non-scaling-stroke"/>
<path d="   M 878.85 1023.73   C 943.25 1009.78 1005.09 986.87 1066.30 962.80   Q 1067.30 962.41 1066.69 961.52   C 1062.34 955.16 1057.89 945.06 1048.08 948.36   C 1030.94 954.13 1017.62 958.81 1000.46 965.45   Q 959.34 981.34 916.08 990.09   C 842.19 1005.03 766.07 1006.66 691.69 993.84   C 640.87 985.08 591.27 968.67 547.42 941.60   Q 543.67 939.28 540.06 939.79   Q 507.10 944.45 471.05 954.04   C 468.28 954.77 464.18 955.35 460.83 956.51   Q 460.31 956.69 460.42 957.23   Q 460.74 958.73 462.18 958.76   Q 462.67 958.77 463.11 959.00   Q 490.24 972.80 517.39 986.53   Q 525.57 990.66 533.52 993.50   C 604.10 1018.73 679.22 1035.55 754.00 1036.48   Q 816.38 1037.27 878.85 1023.73" stroke="#80bad9" vector-effect="non-scaling-stroke"/>
</g>

<path d="   M 940.00 491.38   Q 939.19 491.45 939.21 492.00   Q 939.22 492.43 939.21 492.51   Q 933.06 530.56 926.08 568.49   Q 913.86 631.00 910.34 647.07   Q 892.24 729.73 867.70 810.70   C 859.16 838.88 849.84 866.83 841.22 894.99   C 831.44 926.95 819.11 958.59 806.75 989.76   A 0.75 0.75 0.0 0 1 805.53 990.02   Q 713.42 901.85 605.24 833.77   Q 603.13 832.44 602.00 831.92   Q 601.31 831.69 600.65 831.29   Q 484.83 759.94 356.49 714.77   Q 354.27 713.99 353.42 713.52   Q 353.14 713.36 352.87 713.53   L 352.53 713.74   L 351.89 712.87   Q 351.58 712.46 351.10 712.30   Q 264.53 682.47 174.73 664.47   A 0.41 0.41 0.0 0 1 174.76 663.66   Q 175.89 663.52 176.83 662.91   Q 177.22 662.65 177.69 662.62   Q 253.30 658.85 327.74 644.84   Q 327.85 645.05 328.04 645.15   Q 328.20 645.22 328.44 645.18   C 432.95 625.75 533.32 591.97 627.14 541.96   C 629.23 540.84 631.24 540.40 633.25 538.95   C 637.34 535.99 642.56 533.93 646.05 532.11   C 650.84 529.61 654.24 526.19 658.26 524.85   Q 658.69 524.71 658.86 524.29   Q 659.01 523.89 658.97 523.57   Q 746.31 472.37 814.83 402.57   Q 921.79 293.62 971.81 149.15   Q 972.66 146.68 974.04 144.90   Q 974.39 144.45 974.36 145.02   Q 973.14 165.94 971.89 187.07   Q 962.93 338.29 939.88 488.00   C 939.73 488.96 938.90 490.46 940.00 491.38   Z" fill="#0075b3"/>

<ellipse cx="0.00" cy="0.00" fill="#1a294e" rx="136.43" ry="131.15" transform="translate(557.15,330.72) rotate(89.8)"/>
<path d="   M 658.97 523.57   Q 659.01 523.89 658.86 524.29   Q 658.69 524.71 658.26 524.85   C 654.24 526.19 650.84 529.61 646.05 532.11   C 642.56 533.93 637.34 535.99 633.25 538.95   C 631.24 540.40 629.23 540.84 627.14 541.96   C 533.32 591.97 432.95 625.75 328.44 645.18   Q 328.20 645.22 328.04 645.15   Q 327.85 645.05 327.74 644.84   C 327.73 644.09 327.86 643.44 327.59 642.74   Q 252.93 453.53 118.18 301.30   C 114.80 297.48 111.09 293.80 108.03 289.73   Q 107.47 288.99 108.28 289.43   Q 109.63 290.16 111.30 291.46   C 190.55 353.27 278.14 406.40 370.47 447.23   C 461.03 487.28 556.83 514.23 654.94 523.94   Q 656.39 524.08 658.97 523.57   Z" fill="#1a294e"/>
<path d="   M 926.08 568.49   Q 933.06 530.56 939.21 492.51   Q 939.22 492.43 939.21 492.00   Q 939.19 491.45 940.00 491.38   Q 1006.23 467.75 1064.37 428.40   Q 1070.10 424.52 1075.64 420.07   A 0.58 0.58 0.0 0 1 1076.55 420.32   L 1076.72 420.80   Q 1076.95 421.41 1076.47 421.86   C 1075.48 422.78 1074.21 423.64 1073.33 424.53   C 1025.17 473.49 975.87 521.19 926.08 568.49   Z" fill="#1a294e"/>
<path d="   M 602.00 831.92   Q 503.94 899.50 398.51 954.75   A 1.01 1.01 0.0 0 1 397.03 953.91   C 392.42 872.19 377.31 791.70 352.53 713.74   L 352.87 713.53   Q 353.14 713.36 353.42 713.52   Q 354.27 713.99 356.49 714.77   Q 484.83 759.94 600.65 831.29   Q 601.31 831.69 602.00 831.92   Z" fill="#1a294e"/>

<path d="   M 878.85 1023.73   Q 816.38 1037.27 754.00 1036.48   C 679.22 1035.55 604.10 1018.73 533.52 993.50   Q 525.57 990.66 517.39 986.53   Q 490.24 972.80 463.11 959.00   Q 462.67 958.77 462.18 958.76   Q 460.74 958.73 460.42 957.23   Q 460.31 956.69 460.83 956.51   C 464.18 955.35 468.28 954.77 471.05 954.04   Q 507.10 944.45 540.06 939.79   Q 543.67 939.28 547.42 941.60   C 591.27 968.67 640.87 985.08 691.69 993.84   C 766.07 1006.66 842.19 1005.03 916.08 990.09   Q 959.34 981.34 1000.46 965.45   C 1017.62 958.81 1030.94 954.13 1048.08 948.36   C 1057.89 945.06 1062.34 955.16 1066.69 961.52   Q 1067.30 962.41 1066.30 962.80   C 1005.09 986.87 943.25 1009.78 878.85 1023.73   Z" fill="#0075b3"/>
</svg>