<?xml version="1.0" encoding="utf-8"?>
<!DOCTYPE svg PUBLIC "-//W3C//DTD SVG 1.1//EN" "http://www.w3.org/Graphics/SVG/1.1/DTD/svg11.dtd">
<svg version="1.1" viewBox="0.00 0.00 1181.00 1181.00" xmlns="http://www.w3.org/2000/svg">
<g fill="none" stroke-linecap="butt" stroke-width="2.00">
<path d="   M 657.43 523.87   L 655.43 525.07" stroke="#b9e48b" vector-effect="non-scaling-stroke"/>
<path d="   M 655.43 525.07   L 639.01 523.72" stroke="#809b8b" vector-effect="non-scaling-stroke"/>
<path d="   M 639.01 523.72   Q 636.11 522.78 633.47 523.12" stroke="#94db9b" vector-effect="non-scaling-stroke"/>
<path d="   M 633.47 523.12   C 445.66 499.90 271.95 415.08 122.20 301.79   Q 113.98 295.57 109.75 291.92" stroke="#809b8b" vector-effect="non-scaling-stroke"/>
<path d="   M 109.75 291.92   Q 108.34 291.40 107.97 290.33   A 0.75 0.73 55.8 0 1 108.09 289.63   L 109.11 288.35   A 0.92 0.92 0.0 0 0 107.72 287.14   Q 104.55 290.49 109.01 293.47" stroke="#94db9b" vector-effect="non-scaling-stroke"/>
<path d="   M 109.01 293.47   Q 114.38 299.12 116.97 302.04   C 206.35 402.96 277.05 519.53 326.16 645.04   Q 326.25 645.28 326.27 645.79" stroke="#809b8b" vector-effect="non-scaling-stroke"/>
<path d="   M 326.27 645.79   Q 322.48 646.66 313.24 648.22   Q 253.94 658.26 197.24 662.38   Q 183.76 663.35 170.02 663.55   A 0.46 0.45 59.5 0 0 169.80 664.40   C 172.78 666.12 176.49 666.16 179.06 666.69   Q 266.04 684.68 349.97 713.68" stroke="#94db9b" vector-effect="non-scaling-stroke"/>
<path d="   M 349.97 713.68   Q 350.47 714.68 350.73 715.50   Q 387.85 832.82 395.00 954.93   Q 395.08 956.40 396.38 955.71   Q 501.36 900.55 599.13 833.16   Q 599.53 832.88 599.46 833.10" stroke="#809b8b" vector-effect="non-scaling-stroke"/>
<path d="   M 599.46 833.10   Q 616.35 844.04 633.07 855.25   Q 723.47 915.88 801.67 990.88   A 0.99 0.99 0.0 0 0 803.27 990.52   Q 817.76 953.60 830.94 916.18   C 837.70 896.97 843.14 877.28 849.50 857.92   Q 867.03 804.62 882.11 750.58   Q 889.70 723.38 891.02 714.76   C 893.08 701.29 897.99 684.47 900.07 675.32   Q 912.03 622.74 922.02 569.75" stroke="#94db9b" vector-effect="non-scaling-stroke"/>
<path d="   M 922.02 569.75   C 922.47 569.29 922.73 568.62 923.14 568.23   Q 996.77 498.97 1067.53 426.78   Q 1071.12 423.12 1073.77 420.16   Q 1076.18 417.46 1073.45 419.85   C 1065.95 426.40 1056.17 431.82 1047.77 437.25   Q 995.05 471.30 935.94 492.48   Q 935.76 492.55 935.58 492.51   Q 935.41 492.48 935.31 492.46" stroke="#809b8b" vector-effect="non-scaling-stroke"/>
<path d="   M 935.31 492.46   Q 961.05 324.80 969.33 155.35   C 969.46 152.76 970.23 149.10 970.20 145.93   Q 970.19 144.91 969.65 145.77   Q 968.77 147.16 967.99 149.46   C 929.28 263.71 859.34 365.71 767.67 444.42   Q 715.96 488.82 657.43 523.87" stroke="#94db9b" vector-effect="non-scaling-stroke"/>
<path d="   M 935.31 492.46   L 934.56 492.51" stroke="#157727" vector-effect="non-scaling-stroke"/>
<path d="   M 934.56 492.51   Q 935.41 485.39 936.39 478.30   C 936.63 476.57 937.33 474.43 937.47 472.43   Q 937.69 469.10 937.90 468.00   Q 941.10 451.20 942.73 434.19   Q 942.82 433.16 943.26 431.51   C 943.81 429.46 943.88 426.62 944.07 425.32   C 946.61 407.96 948.97 389.91 950.53 372.27   C 950.91 367.95 952.37 363.28 952.67 358.55   Q 953.10 351.85 953.42 349.49   C 954.77 339.74 955.15 329.88 956.52 320.10   C 956.95 316.99 956.61 314.24 957.29 311.05   C 957.98 307.77 957.51 304.75 958.23 301.46   C 958.98 297.99 958.62 293.74 959.02 290.94   C 960.65 279.42 960.70 267.88 962.04 256.34   C 962.57 251.72 962.35 246.73 962.89 241.87   Q 963.85 233.16 963.98 231.10   C 965.37 209.38 966.94 187.89 968.60 154.61   Q 968.63 154.11 968.14 154.00   Q 967.70 153.89 967.36 154.07   Q 966.96 154.27 966.79 155.00   Q 966.22 157.51 964.73 161.54   Q 948.32 206.01 927.44 246.07   C 924.03 252.62 919.85 259.63 916.03 266.41   C 894.98 303.74 869.40 339.12 841.67 371.76   C 835.28 379.28 828.33 386.54 821.73 393.73   Q 802.75 414.40 779.64 435.15   C 749.37 462.31 716.87 487.49 682.58 509.37   C 674.98 514.22 667.23 519.88 659.19 523.90   Q 658.76 524.12 658.28 524.03   L 657.43 523.87" stroke="#4ec027" vector-effect="non-scaling-stroke"/>
<path d="   M 934.56 492.51   C 934.47 496.69 933.36 501.34 932.84 504.58   Q 927.65 536.88 921.53 568.94" stroke="#398016" vector-effect="non-scaling-stroke"/>
<path d="   M 921.53 568.94   Q 917.09 591.04 912.54 613.07   C 910.88 621.11 908.09 636.26 905.38 647.78   C 902.57 659.73 899.59 674.73 895.73 687.97   C 892.97 697.47 891.43 705.52 889.98 714.61   C 889.61 716.95 888.57 719.34 888.20 721.79   C 886.38 733.90 882.99 746.02 879.45 757.74   Q 875.36 771.27 871.45 784.85   Q 869.79 790.62 867.92 796.32   C 865.43 803.88 863.56 812.05 861.00 819.82   C 857.10 831.70 853.44 843.56 849.39 855.34   C 843.82 871.57 839.54 888.21 834.26 904.54   Q 833.65 906.44 832.48 908.94   Q 831.08 911.95 830.84 913.43   C 830.25 917.22 828.24 920.88 827.34 923.76   C 824.19 933.78 819.31 946.16 816.70 953.29   Q 810.31 970.75 802.98 989.51   A 1.00 1.00 0.0 0 1 801.74 990.09   Q 800.97 989.83 800.47 988.87   Q 799.99 987.96 799.54 987.53   Q 768.89 958.71 745.06 938.69   Q 719.95 917.59 710.53 910.23   Q 660.27 870.90 606.51 836.52   Q 603.22 834.41 599.68 832.90" stroke="#4ec027" vector-effect="non-scaling-stroke"/>
<path d="   M 599.68 832.90   Q 481.64 759.21 350.28 713.33" stroke="#398016" vector-effect="non-scaling-stroke"/>
<path d="   M 350.28 713.33   C 347.14 710.44 337.10 708.07 332.77 706.56   C 322.47 702.96 312.52 700.10 300.72 696.35   Q 250.41 680.36 184.05 666.26   C 182.88 666.01 182.00 666.07 180.74 665.98   Q 179.59 665.90 180.64 665.44   C 186.38 662.92 194.78 663.77 200.81 663.32   C 230.65 661.08 261.71 657.45 286.72 653.83   C 293.25 652.89 299.46 651.56 306.25 650.71   Q 315.70 649.53 326.80 645.73" stroke="#4ec027" vector-effect="non-scaling-stroke"/>
<path d="   M 326.80 645.73   C 432.37 625.56 533.89 591.26 628.51 540.04   Q 640.29 533.66 644.41 531.20   C 645.38 530.62 646.06 529.49 647.70 529.33   Q 648.21 529.28 648.56 528.92   Q 650.96 526.53 654.27 525.97   Q 654.71 525.90 654.98 525.72   Q 655.57 525.34 655.43 525.07" stroke="#398016" vector-effect="non-scaling-stroke"/>
<path d="   M 922.02 569.75   L 921.53 568.94" stroke="#157727" vector-effect="non-scaling-stroke"/>
<path d="   M 599.46 833.10   Q 599.89 832.59 599.68 832.90" stroke="#157727" vector-effect="non-scaling-stroke"/>
<path d="   M 633.47 523.12   L 639.01 523.72" stroke="#157727" vector-effect="non-scaling-stroke"/>
<path d="   M 326.80 645.73   L 326.27 645.79" stroke="#157727" vector-effect="non-scaling-stroke"/>
<path d="   M 350.28 713.33   L 349.97 713.68" stroke="#157727" vector-effect="non-scaling-stroke"/>
<path d="   M 109.75 291.92   Q 109.13 292.70 109.01 293.47" stroke="#157727" vector-effect="non-scaling-stroke"/>
<path d="   M 522.16 464.01   L 527.49 465.39" stroke="#94db9b" vector-effect="non-scaling-stroke"/>
<path d="   M 527.49 465.39   C 624.60 485.81 701.64 395.21 682.04 302.46   C 670.24 246.61 625.38 202.83 567.96 196.23   C 532.85 192.19 496.98 204.10 470.82 227.08   C 395.31 293.41 413.32 417.65 505.72 458.54   Q 509.16 460.07 522.16 464.01" stroke="#809b8b" vector-effect="non-scaling-stroke"/>
<path d="   M 527.49 465.39   Q 525.98 463.90 522.16 464.01" stroke="#157727" vector-effect="non-scaling-stroke"/>
<path d="   M 730.66 1037.38   L 730.33 1037.71   Q 729.51 1038.53 730.67 1038.52   L 783.96 1038.39   Q 784.58 1038.39 784.52 1037.77   Q 784.50 1037.60 784.50 1037.46   Q 784.48 1036.85 785.09 1036.81   C 881.14 1031.60 973.06 999.43 1061.60 963.85   A 0.97 0.97 0.0 0 0 1062.01 962.36   C 1057.45 956.37 1053.67 945.97 1043.81 949.24   Q 1026.69 954.92 1009.68 960.91   Q 1009.31 961.04 1009.21 961.30   Q 1009.08 961.66 1008.70 961.76   C 1005.87 962.48 1003.47 962.98 1000.71 964.36   Q 996.77 966.33 992.43 967.27   A 1.50 1.49 13.5 0 0 991.59 967.78   Q 991.11 968.36 990.55 968.54   C 986.64 969.78 982.78 971.53 979.09 972.67   C 968.52 975.92 957.38 979.85 947.45 982.53   C 884.26 999.58 817.11 1006.23 753.18 1002.50   Q 691.78 998.91 632.76 981.71   Q 593.59 970.30 554.95 948.86   C 549.43 945.80 543.78 939.92 536.93 940.92   Q 501.25 946.11 467.60 955.28   C 465.31 955.91 461.45 956.06 458.45 957.81   A 0.62 0.61 43.6 0 0 458.48 958.89   Q 486.68 973.36 515.11 987.79   Q 523.10 991.84 530.92 994.62   C 585.94 1014.19 642.88 1028.46 701.00 1034.70   Q 714.99 1036.20 730.34 1036.58   A 0.47 0.47 0.0 0 1 730.66 1037.38" stroke="#94db9b" vector-effect="non-scaling-stroke"/>
</g>

<path d="   M 935.31 492.46   L 934.56 492.51   Q 935.41 485.39 936.39 478.30   C 936.63 476.57 937.33 474.43 937.47 472.43   Q 937.69 469.10 937.90 468.00   Q 941.10 451.20 942.73 434.19   Q 942.82 433.16 943.26 431.51   C 943.81 429.46 943.88 426.62 944.07 425.32   C 946.61 407.96 948.97 389.91 950.53 372.27   C 950.91 367.95 952.37 363.28 952.67 358.55   Q 953.10 351.85 953.42 349.49   C 954.77 339.74 955.15 329.88 956.52 320.10   C 956.95 316.99 956.61 314.24 957.29 311.05   C 957.98 307.77 957.51 304.75 958.23 301.46   C 958.98 297.99 958.62 293.74 959.02 290.94   C 960.65 279.42 960.70 267.88 962.04 256.34   C 962.57 251.72 962.35 246.73 962.89 241.87   Q 963.85 233.16 963.98 231.10   C 965.37 209.38 966.94 187.89 968.60 154.61   Q 968.63 154.11 968.14 154.00   Q 967.70 153.89 967.36 154.07   Q 966.96 154.27 966.79 155.00   Q 966.22 157.51 964.73 161.54   Q 948.32 206.01 927.44 246.07   C 924.03 252.62 919.85 259.63 916.03 266.41   C 894.98 303.74 869.40 339.12 841.67 371.76   C 835.28 379.28 828.33 386.54 821.73 393.73   Q 802.75 414.40 779.64 435.15   C 749.37 462.31 716.87 487.49 682.58 509.37   C 674.98 514.22 667.23 519.88 659.19 523.90   Q 658.76 524.12 658.28 524.03   L 657.43 523.87   Q 715.96 488.82 767.67 444.42   C 859.34 365.71 929.28 263.71 967.99 149.46   Q 968.77 147.16 969.65 145.77   Q 970.19 144.91 970.20 145.93   C 970.23 149.10 969.46 152.76 969.33 155.35   Q 961.05 324.80 935.31 492.46   Z" fill="#29b737"/>
<path d="   M 934.56 492.51   C 934.47 496.69 933.36 501.34 932.84 504.58   Q 927.65 536.88 921.53 568.94   Q 917.09 591.04 912.54 613.07   C 910.88 621.11 908.09 636.26 905.38 647.78   C 902.57 659.73 899.59 674.73 895.73 687.97   C 892.97 697.47 891.43 705.52 889.98 714.61   C 889.61 716.95 888.57 719.34 888.20 721.79   C 886.38 733.90 882.99 746.02 879.45 757.74   Q 875.36 771.27 871.45 784.85   Q 869.79 790.62 867.92 796.32   C 865.43 803.88 863.56 812.05 861.00 819.82   C 857.10 831.70 853.44 843.56 849.39 855.34   C 843.82 871.57 839.54 888.21 834.26 904.54   Q 833.65 906.44 832.48 908.94   Q 831.08 911.95 830.84 913.43   C 830.25 917.22 828.24 920.88 827.34 923.76   C 824.19 933.78 819.31 946.16 816.70 953.29   Q 810.31 970.75 802.98 989.51   A 1.00 1.00 0.0 0 1 801.74 990.09   Q 800.97 989.83 800.47 988.87   Q 799.99 987.96 799.54 987.53   Q 768.89 958.71 745.06 938.69   Q 719.95 917.59 710.53 910.23   Q 660.27 870.90 606.51 836.52   Q 603.22 834.41 599.68 832.90   Q 481.64 759.21 350.28 713.33   C 347.14 710.44 337.10 708.07 332.77 706.56   C 322.47 702.96 312.52 700.10 300.72 696.35   Q 250.41 680.36 184.05 666.26   C 182.88 666.01 182.00 666.07 180.74 665.98   Q 179.59 665.90 180.64 665.44   C 186.38 662.92 194.78 663.77 200.81 663.32   C 230.65 661.08 261.71 657.45 286.72 653.83   C 293.25 652.89 299.46 651.56 306.25 650.71   Q 315.70 649.53 326.80 645.73   C 432.37 625.56 533.89 591.26 628.51 540.04   Q 640.29 533.66 644.41 531.20   C 645.38 530.62 646.06 529.49 647.70 529.33   Q 648.21 529.28 648.56 528.92   Q 650.96 526.53 654.27 525.97   Q 654.71 525.90 654.98 525.72   Q 655.57 525.34 655.43 525.07   L 657.43 523.87   L 658.28 524.03   Q 658.76 524.12 659.19 523.90   C 667.23 519.88 674.98 514.22 682.58 509.37   C 716.87 487.49 749.37 462.31 779.64 435.15   Q 802.75 414.40 821.73 393.73   C 828.33 386.54 835.28 379.28 841.67 371.76   C 869.40 339.12 894.98 303.74 916.03 266.41   C 919.85 259.63 924.03 252.62 927.44 246.07   Q 948.32 206.01 964.73 161.54   Q 966.22 157.51 966.79 155.00   Q 966.96 154.27 967.36 154.07   Q 967.70 153.89 968.14 154.00   Q 968.63 154.11 968.60 154.61   C 966.94 187.89 965.37 209.38 963.98 231.10   Q 963.85 233.16 962.89 241.87   C 962.35 246.73 962.57 251.72 962.04 256.34   C 960.70 267.88 960.65 279.42 959.02 290.94   C 958.62 293.74 958.98 297.99 958.23 301.46   C 957.51 304.75 957.98 307.77 957.29 311.05   C 956.61 314.24 956.95 316.99 956.52 320.10   C 955.15 329.88 954.77 339.74 953.42 349.49   Q 953.10 351.85 952.67 358.55   C 952.37 363.28 950.91 367.95 950.53 372.27   C 948.97 389.91 946.61 407.96 944.07 425.32   C 943.88 426.62 943.81 429.46 943.26 431.51   Q 942.82 433.16 942.73 434.19   Q 941.10 451.20 937.90 468.00   Q 937.69 469.10 937.47 472.43   C 937.33 474.43 936.63 476.57 936.39 478.30   Q 935.41 485.39 934.56 492.51   Z" fill="#72c816"/>

<path d="   M 527.49 465.39   Q 525.98 463.90 522.16 464.01   Q 509.16 460.07 505.72 458.54   C 413.32 417.65 395.31 293.41 470.82 227.08   C 496.98 204.10 532.85 192.19 567.96 196.23   C 625.38 202.83 670.24 246.61 682.04 302.46   C 701.64 395.21 624.60 485.81 527.49 465.39   Z" fill="#003716"/>
<path d="   M 109.75 291.92   Q 109.13 292.70 109.01 293.47   Q 104.55 290.49 107.72 287.14   A 0.92 0.92 0.0 0 1 109.11 288.35   L 108.09 289.63   A 0.75 0.73 55.8 0 0 107.97 290.33   Q 108.34 291.40 109.75 291.92   Z" fill="#29b737"/>
<path d="   M 109.75 291.92   Q 113.98 295.57 122.20 301.79   C 271.95 415.08 445.66 499.90 633.47 523.12   L 639.01 523.72   L 655.43 525.07   Q 655.57 525.34 654.98 525.72   Q 654.71 525.90 654.27 525.97   Q 650.96 526.53 648.56 528.92   Q 648.21 529.28 647.70 529.33   C 646.06 529.49 645.38 530.62 644.41 531.20   Q 640.29 533.66 628.51 540.04   C 533.89 591.26 432.37 625.56 326.80 645.73   L 326.27 645.79   Q 326.25 645.28 326.16 645.04   C 277.05 519.53 206.35 402.96 116.97 302.04   Q 114.38 299.12 109.01 293.47   Q 109.13 292.70 109.75 291.92   Z" fill="#003716"/>
<path d="   M 922.02 569.75   L 921.53 568.94   Q 927.65 536.88 932.84 504.58   C 933.36 501.34 934.47 496.69 934.56 492.51   L 935.31 492.46   Q 935.41 492.48 935.58 492.51   Q 935.76 492.55 935.94 492.48   Q 995.05 471.30 1047.77 437.25   C 1056.17 431.82 1065.95 426.40 1073.45 419.85   Q 1076.18 417.46 1073.77 420.16   Q 1071.12 423.12 1067.53 426.78   Q 996.77 498.97 923.14 568.23   C 922.73 568.62 922.47 569.29 922.02 569.75   Z" fill="#003716"/>
<path d="   M 522.16 464.01   Q 525.98 463.90 527.49 465.39   L 522.16 464.01   Z" fill="#29b737"/>
<path d="   M 633.47 523.12   Q 636.11 522.78 639.01 523.72   L 633.47 523.12   Z" fill="#29b737"/>
<path d="   M 921.53 568.94   L 922.02 569.75   Q 912.03 622.74 900.07 675.32   C 897.99 684.47 893.08 701.29 891.02 714.76   Q 889.70 723.38 882.11 750.58   Q 867.03 804.62 849.50 857.92   C 843.14 877.28 837.70 896.97 830.94 916.18   Q 817.76 953.60 803.27 990.52   A 0.99 0.99 0.0 0 1 801.67 990.88   Q 723.47 915.88 633.07 855.25   Q 616.35 844.04 599.46 833.10   Q 599.89 832.59 599.68 832.90   Q 603.22 834.41 606.51 836.52   Q 660.27 870.90 710.53 910.23   Q 719.95 917.59 745.06 938.69   Q 768.89 958.71 799.54 987.53   Q 799.99 987.96 800.47 988.87   Q 800.97 989.83 801.74 990.09   A 1.00 1.00 0.0 0 0 802.98 989.51   Q 810.31 970.75 816.70 953.29   C 819.31 946.16 824.19 933.78 827.34 923.76   C 828.24 920.88 830.25 917.22 830.84 913.43   Q 831.08 911.95 832.48 908.94   Q 833.65 906.44 834.26 904.54   C 839.54 888.21 843.82 871.57 849.39 855.34   C 853.44 843.56 857.10 831.70 861.00 819.82   C 863.56 812.05 865.43 803.88 867.92 796.32   Q 869.79 790.62 871.45 784.85   Q 875.36 771.27 879.45 757.74   C 882.99 746.02 886.38 733.90 888.20 721.79   C 888.57 719.34 889.61 716.95 889.98 714.61   C 891.43 705.52 892.97 697.47 895.73 687.97   C 899.59 674.73 902.57 659.73 905.38 647.78   C 908.09 636.26 910.88 621.11 912.54 613.07   Q 917.09 591.04 921.53 568.94   Z" fill="#29b737"/>
<path d="   M 326.27 645.79   L 326.80 645.73   Q 315.70 649.53 306.25 650.71   C 299.46 651.56 293.25 652.89 286.72 653.83   C 261.71 657.45 230.65 661.08 200.81 663.32   C 194.78 663.77 186.38 662.92 180.64 665.44   Q 179.59 665.90 180.74 665.98   C 182.00 666.07 182.88 666.01 184.05 666.26   Q 250.41 680.36 300.72 696.35   C 312.52 700.10 322.47 702.96 332.77 706.56   C 337.10 708.07 347.14 710.44 350.28 713.33   L 349.97 713.68   Q 266.04 684.68 179.06 666.69   C 176.49 666.16 172.78 666.12 169.80 664.40   A 0.46 0.45 59.5 0 1 170.02 663.55   Q 183.76 663.35 197.24 662.38   Q 253.94 658.26 313.24 648.22   Q 322.48 646.66 326.27 645.79   Z" fill="#29b737"/>
<path d="   M 350.28 713.33   Q 481.64 759.21 599.68 832.90   Q 599.89 832.59 599.46 833.10   Q 599.53 832.88 599.13 833.16   Q 501.36 900.55 396.38 955.71   Q 395.08 956.40 395.00 954.93   Q 387.85 832.82 350.73 715.50   Q 350.47 714.68 349.97 713.68   L 350.28 713.33   Z" fill="#003716"/>

<path d="   M 730.66 1037.38   A 0.47 0.47 0.0 0 0 730.34 1036.58   Q 714.99 1036.20 701.00 1034.70   C 642.88 1028.46 585.94 1014.19 530.92 994.62   Q 523.10 991.84 515.11 987.79   Q 486.68 973.36 458.48 958.89   A 0.62 0.61 43.6 0 1 458.45 957.81   C 461.45 956.06 465.31 955.91 467.60 955.28   Q 501.25 946.11 536.93 940.92   C 543.78 939.92 549.43 945.80 554.95 948.86   Q 593.59 970.30 632.76 981.71   Q 691.78 998.91 753.18 1002.50   C 817.11 1006.23 884.26 999.58 947.45 982.53   C 957.38 979.85 968.52 975.92 979.09 972.67   C 982.78 971.53 986.64 969.78 990.55 968.54   Q 991.11 968.36 991.59 967.78   A 1.50 1.49 13.5 0 1 992.43 967.27   Q 996.77 966.33 1000.71 964.36   C 1003.47 962.98 1005.87 962.48 1008.70 961.76   Q 1009.08 961.66 1009.21 961.30   Q 1009.31 961.04 1009.68 960.91   Q 1026.69 954.92 1043.81 949.24   C 1053.67 945.97 1057.45 956.37 1062.01 962.36   A 0.97 0.97 0.0 0 1 1061.60 963.85   C 973.06 999.43 881.14 1031.60 785.09 1036.81   Q 784.48 1036.85 784.50 1037.46   Q 784.50 1037.60 784.52 1037.77   Q 784.58 1038.39 783.96 1038.39   L 730.67 1038.52   Q 729.51 1038.53 730.33 1037.71   L 730.66 1037.38   Z" fill="#29b737"/>
</svg>